<mxfile host="app.diagrams.net" modified="2022-06-02T01:50:04.785Z" agent="5.0 (Windows NT 6.1; Win64; x64) AppleWebKit/537.36 (KHTML, like Gecko) Chrome/96.0.4664.45 Safari/537.36" etag="JVWb_VZVqqsi5ae6IsRo" version="17.4.6" type="github">
  <diagram id="meVgTXFV0Rb9YD3vlooV" name="第 1 页">
    <mxGraphModel dx="1587" dy="838" grid="1" gridSize="10" guides="1" tooltips="1" connect="1" arrows="1" fold="1" page="1" pageScale="1" pageWidth="827" pageHeight="1169" math="0" shadow="0">
      <root>
        <mxCell id="0" />
        <mxCell id="1" parent="0" />
        <mxCell id="g9Eve9OgDXoUgPSPYTMr-10" value="" style="group;fontStyle=1" vertex="1" connectable="0" parent="1">
          <mxGeometry x="140" y="220" width="120" height="120" as="geometry" />
        </mxCell>
        <mxCell id="g9Eve9OgDXoUgPSPYTMr-11" value="" style="shape=partialRectangle;whiteSpace=wrap;html=1;bottom=0;top=0;fillColor=none;" vertex="1" parent="g9Eve9OgDXoUgPSPYTMr-10">
          <mxGeometry x="60" y="60" width="60" height="60" as="geometry" />
        </mxCell>
        <mxCell id="g9Eve9OgDXoUgPSPYTMr-12" value="" style="whiteSpace=wrap;html=1;aspect=fixed;fontStyle=1" vertex="1" parent="g9Eve9OgDXoUgPSPYTMr-10">
          <mxGeometry x="60" width="60" height="60" as="geometry" />
        </mxCell>
        <mxCell id="g9Eve9OgDXoUgPSPYTMr-13" value="" style="shape=partialRectangle;whiteSpace=wrap;html=1;bottom=0;top=0;fillColor=none;direction=east;rotation=90;" vertex="1" parent="g9Eve9OgDXoUgPSPYTMr-10">
          <mxGeometry width="60" height="60" as="geometry" />
        </mxCell>
        <mxCell id="g9Eve9OgDXoUgPSPYTMr-47" value="" style="group;fontStyle=1" vertex="1" connectable="0" parent="1">
          <mxGeometry x="510" y="80" width="120" height="180" as="geometry" />
        </mxCell>
        <mxCell id="g9Eve9OgDXoUgPSPYTMr-48" value="" style="shape=partialRectangle;whiteSpace=wrap;html=1;bottom=0;top=0;fillColor=none;" vertex="1" parent="g9Eve9OgDXoUgPSPYTMr-47">
          <mxGeometry x="60" y="60" width="60" height="60" as="geometry" />
        </mxCell>
        <mxCell id="g9Eve9OgDXoUgPSPYTMr-49" value="" style="whiteSpace=wrap;html=1;aspect=fixed;fontStyle=1" vertex="1" parent="g9Eve9OgDXoUgPSPYTMr-47">
          <mxGeometry x="60" width="60" height="60" as="geometry" />
        </mxCell>
        <mxCell id="g9Eve9OgDXoUgPSPYTMr-50" value="" style="shape=partialRectangle;whiteSpace=wrap;html=1;bottom=0;top=0;fillColor=none;direction=east;rotation=90;" vertex="1" parent="g9Eve9OgDXoUgPSPYTMr-47">
          <mxGeometry width="60" height="60" as="geometry" />
        </mxCell>
        <mxCell id="g9Eve9OgDXoUgPSPYTMr-59" value="" style="group;fontStyle=1" vertex="1" connectable="0" parent="g9Eve9OgDXoUgPSPYTMr-47">
          <mxGeometry x="-60" width="120" height="180" as="geometry" />
        </mxCell>
        <mxCell id="g9Eve9OgDXoUgPSPYTMr-60" value="" style="shape=partialRectangle;whiteSpace=wrap;html=1;bottom=0;top=0;fillColor=none;" vertex="1" parent="g9Eve9OgDXoUgPSPYTMr-59">
          <mxGeometry x="60" y="60" width="60" height="60" as="geometry" />
        </mxCell>
        <mxCell id="g9Eve9OgDXoUgPSPYTMr-61" value="" style="whiteSpace=wrap;html=1;aspect=fixed;fontStyle=1" vertex="1" parent="g9Eve9OgDXoUgPSPYTMr-59">
          <mxGeometry x="60" width="60" height="60" as="geometry" />
        </mxCell>
        <mxCell id="g9Eve9OgDXoUgPSPYTMr-62" value="" style="shape=partialRectangle;whiteSpace=wrap;html=1;bottom=0;top=0;fillColor=none;direction=east;rotation=90;" vertex="1" parent="g9Eve9OgDXoUgPSPYTMr-59">
          <mxGeometry width="60" height="60" as="geometry" />
        </mxCell>
        <mxCell id="g9Eve9OgDXoUgPSPYTMr-63" value="" style="group;fontStyle=1" vertex="1" connectable="0" parent="g9Eve9OgDXoUgPSPYTMr-59">
          <mxGeometry y="60" width="120" height="120" as="geometry" />
        </mxCell>
        <mxCell id="g9Eve9OgDXoUgPSPYTMr-64" value="" style="shape=partialRectangle;whiteSpace=wrap;html=1;bottom=0;top=0;fillColor=none;" vertex="1" parent="g9Eve9OgDXoUgPSPYTMr-63">
          <mxGeometry x="60" y="60" width="60" height="60" as="geometry" />
        </mxCell>
        <mxCell id="g9Eve9OgDXoUgPSPYTMr-65" value="" style="whiteSpace=wrap;html=1;aspect=fixed;fontStyle=1" vertex="1" parent="g9Eve9OgDXoUgPSPYTMr-63">
          <mxGeometry x="60" width="60" height="60" as="geometry" />
        </mxCell>
        <mxCell id="g9Eve9OgDXoUgPSPYTMr-66" value="" style="shape=partialRectangle;whiteSpace=wrap;html=1;bottom=0;top=0;fillColor=none;direction=east;rotation=90;" vertex="1" parent="g9Eve9OgDXoUgPSPYTMr-63">
          <mxGeometry width="60" height="60" as="geometry" />
        </mxCell>
        <mxCell id="g9Eve9OgDXoUgPSPYTMr-67" value="" style="group;fontStyle=1" vertex="1" connectable="0" parent="g9Eve9OgDXoUgPSPYTMr-47">
          <mxGeometry y="60" width="120" height="120" as="geometry" />
        </mxCell>
        <mxCell id="g9Eve9OgDXoUgPSPYTMr-68" value="" style="shape=partialRectangle;whiteSpace=wrap;html=1;bottom=0;top=0;fillColor=none;" vertex="1" parent="g9Eve9OgDXoUgPSPYTMr-67">
          <mxGeometry x="60" y="60" width="60" height="60" as="geometry" />
        </mxCell>
        <mxCell id="g9Eve9OgDXoUgPSPYTMr-69" value="" style="whiteSpace=wrap;html=1;aspect=fixed;fontStyle=1" vertex="1" parent="g9Eve9OgDXoUgPSPYTMr-67">
          <mxGeometry x="60" width="60" height="60" as="geometry" />
        </mxCell>
        <mxCell id="g9Eve9OgDXoUgPSPYTMr-70" value="" style="shape=partialRectangle;whiteSpace=wrap;html=1;bottom=0;top=0;fillColor=none;direction=east;rotation=90;" vertex="1" parent="g9Eve9OgDXoUgPSPYTMr-67">
          <mxGeometry width="60" height="60" as="geometry" />
        </mxCell>
      </root>
    </mxGraphModel>
  </diagram>
</mxfile>
